<mxfile host="app.diagrams.net" modified="2024-03-13T22:28:48.338Z" agent="Mozilla/5.0 (Windows NT 10.0; Win64; x64) AppleWebKit/537.36 (KHTML, like Gecko) Chrome/122.0.0.0 Safari/537.36" etag="0PKrS3bN3NTTC1QEacd7" version="24.0.6" type="device">
  <diagram name="Страница — 1" id="1dEPxF501sdDGIORg-b8">
    <mxGraphModel dx="1128" dy="683" grid="0" gridSize="10" guides="1" tooltips="1" connect="1" arrows="1" fold="1" page="0" pageScale="1" pageWidth="827" pageHeight="1169" math="0" shadow="0">
      <root>
        <mxCell id="0" />
        <mxCell id="1" parent="0" />
        <mxCell id="2wKMQ4-k4NUyG_zGOmCg-4" style="edgeStyle=none;curved=1;rounded=0;orthogonalLoop=1;jettySize=auto;html=1;entryX=0;entryY=0.5;entryDx=0;entryDy=0;fontSize=12;startSize=8;endSize=8;" edge="1" parent="1" source="2wKMQ4-k4NUyG_zGOmCg-1" target="2wKMQ4-k4NUyG_zGOmCg-3">
          <mxGeometry relative="1" as="geometry" />
        </mxCell>
        <mxCell id="2wKMQ4-k4NUyG_zGOmCg-1" value="Пользователь" style="rounded=1;whiteSpace=wrap;html=1;" vertex="1" parent="1">
          <mxGeometry x="-53" y="76" width="120" height="60" as="geometry" />
        </mxCell>
        <mxCell id="2wKMQ4-k4NUyG_zGOmCg-9" style="edgeStyle=none;curved=1;rounded=0;orthogonalLoop=1;jettySize=auto;html=1;entryX=0;entryY=0.5;entryDx=0;entryDy=0;fontSize=12;startSize=8;endSize=8;" edge="1" parent="1" source="2wKMQ4-k4NUyG_zGOmCg-2" target="2wKMQ4-k4NUyG_zGOmCg-8">
          <mxGeometry relative="1" as="geometry" />
        </mxCell>
        <mxCell id="2wKMQ4-k4NUyG_zGOmCg-2" value="Сохраненные группы функций" style="rounded=1;whiteSpace=wrap;html=1;" vertex="1" parent="1">
          <mxGeometry x="352" y="74" width="120" height="60" as="geometry" />
        </mxCell>
        <mxCell id="2wKMQ4-k4NUyG_zGOmCg-6" style="edgeStyle=none;curved=1;rounded=0;orthogonalLoop=1;jettySize=auto;html=1;entryX=0;entryY=0.5;entryDx=0;entryDy=0;fontSize=12;startSize=8;endSize=8;" edge="1" parent="1" source="2wKMQ4-k4NUyG_zGOmCg-3" target="2wKMQ4-k4NUyG_zGOmCg-2">
          <mxGeometry relative="1" as="geometry" />
        </mxCell>
        <mxCell id="2wKMQ4-k4NUyG_zGOmCg-11" style="edgeStyle=none;curved=1;rounded=0;orthogonalLoop=1;jettySize=auto;html=1;fontSize=12;startSize=8;endSize=8;" edge="1" parent="1">
          <mxGeometry relative="1" as="geometry">
            <mxPoint x="234" y="260" as="sourcePoint" />
            <mxPoint x="234" y="373" as="targetPoint" />
          </mxGeometry>
        </mxCell>
        <mxCell id="2wKMQ4-k4NUyG_zGOmCg-14" style="edgeStyle=none;curved=1;rounded=0;orthogonalLoop=1;jettySize=auto;html=1;entryX=1;entryY=0.5;entryDx=0;entryDy=0;fontSize=12;startSize=8;endSize=8;" edge="1" parent="1" source="2wKMQ4-k4NUyG_zGOmCg-3" target="2wKMQ4-k4NUyG_zGOmCg-1">
          <mxGeometry relative="1" as="geometry" />
        </mxCell>
        <mxCell id="2wKMQ4-k4NUyG_zGOmCg-3" value="Страница авторизации" style="rounded=1;whiteSpace=wrap;html=1;" vertex="1" parent="1">
          <mxGeometry x="156" y="200" width="120" height="60" as="geometry" />
        </mxCell>
        <mxCell id="2wKMQ4-k4NUyG_zGOmCg-7" style="edgeStyle=none;curved=1;rounded=0;orthogonalLoop=1;jettySize=auto;html=1;fontSize=12;startSize=8;endSize=8;" edge="1" parent="1">
          <mxGeometry relative="1" as="geometry">
            <mxPoint x="196" y="373" as="sourcePoint" />
            <mxPoint x="196" y="260" as="targetPoint" />
          </mxGeometry>
        </mxCell>
        <mxCell id="2wKMQ4-k4NUyG_zGOmCg-5" value="База данных" style="rounded=1;whiteSpace=wrap;html=1;" vertex="1" parent="1">
          <mxGeometry x="156" y="373" width="120" height="60" as="geometry" />
        </mxCell>
        <mxCell id="2wKMQ4-k4NUyG_zGOmCg-8" value="Конструктор графиков функций" style="rounded=1;whiteSpace=wrap;html=1;" vertex="1" parent="1">
          <mxGeometry x="520" y="200" width="120" height="60" as="geometry" />
        </mxCell>
        <mxCell id="2wKMQ4-k4NUyG_zGOmCg-10" value="Вход" style="text;html=1;align=center;verticalAlign=middle;whiteSpace=wrap;rounded=0;fontSize=16;" vertex="1" parent="1">
          <mxGeometry x="74" y="151" width="60" height="30" as="geometry" />
        </mxCell>
        <mxCell id="2wKMQ4-k4NUyG_zGOmCg-12" value="Запрос на получение данных о пользователе" style="text;html=1;align=center;verticalAlign=middle;whiteSpace=wrap;rounded=0;fontSize=16;" vertex="1" parent="1">
          <mxGeometry x="246" y="302" width="158" height="30" as="geometry" />
        </mxCell>
        <mxCell id="2wKMQ4-k4NUyG_zGOmCg-13" value="Ответ с данными пользователя" style="text;html=1;align=center;verticalAlign=middle;whiteSpace=wrap;rounded=0;fontSize=16;" vertex="1" parent="1">
          <mxGeometry x="111" y="306" width="60" height="30" as="geometry" />
        </mxCell>
        <mxCell id="2wKMQ4-k4NUyG_zGOmCg-15" value="Показать группы функций, взаимодействие с данными" style="text;html=1;align=center;verticalAlign=middle;whiteSpace=wrap;rounded=0;fontSize=16;" vertex="1" parent="1">
          <mxGeometry x="242" y="106" width="60" height="30" as="geometry" />
        </mxCell>
        <mxCell id="2wKMQ4-k4NUyG_zGOmCg-16" value="Отобразить в виде графика" style="text;html=1;align=center;verticalAlign=middle;whiteSpace=wrap;rounded=0;fontSize=16;" vertex="1" parent="1">
          <mxGeometry x="476" y="151" width="60" height="30" as="geometry" />
        </mxCell>
      </root>
    </mxGraphModel>
  </diagram>
</mxfile>
